<svg xmlns="http://www.w3.org/2000/svg" viewBox="0 0 100 100" width="100" height="100">
  <defs>
    <linearGradient id="corkGradient" x1="0%" y1="0%" x2="100%" y2="100%">
      <stop offset="0%" style="stop-color:#D2B48C"/>
      <stop offset="50%" style="stop-color:#DEB887"/>
      <stop offset="100%" style="stop-color:#F4A460"/>
    </linearGradient>
    <linearGradient id="cardGradient" x1="0%" y1="0%" x2="100%" y2="100%">
      <stop offset="0%" style="stop-color:#FFF8DC"/>
      <stop offset="100%" style="stop-color:#F0E68C"/>
    </linearGradient>
  </defs>
  
  <!-- Cork board background -->
  <rect width="100" height="100" fill="url(#corkGradient)" rx="8" ry="8"/>
  
  <!-- Cork texture -->
  <circle cx="15" cy="20" r="2" fill="#8B4513" opacity="0.3"/>
  <circle cx="35" cy="15" r="1.5" fill="#A0522D" opacity="0.4"/>
  <circle cx="70" cy="25" r="2.5" fill="#8B4513" opacity="0.2"/>
  <circle cx="85" cy="40" r="1.8" fill="#A0522D" opacity="0.3"/>
  <circle cx="25" cy="50" r="2.2" fill="#8B4513" opacity="0.4"/>
  <circle cx="80" cy="70" r="1.7" fill="#A0522D" opacity="0.3"/>
  <circle cx="15" cy="85" r="2" fill="#8B4513" opacity="0.2"/>
  <circle cx="45" cy="80" r="1.9" fill="#A0522D" opacity="0.3"/>
  
  <!-- Note cards -->
  <g transform="rotate(-8 30 40)">
    <rect x="15" y="25" width="30" height="30" fill="url(#cardGradient)" rx="3" ry="3" 
          stroke="#DDD" stroke-width="0.5"/>
    <line x1="18" y1="35" x2="42" y2="35" stroke="#CCC" stroke-width="0.8"/>
    <line x1="18" y1="40" x2="38" y2="40" stroke="#CCC" stroke-width="0.8"/>
    <line x1="18" y1="45" x2="41" y2="45" stroke="#CCC" stroke-width="0.8"/>
    <line x1="18" y1="50" x2="35" y2="50" stroke="#CCC" stroke-width="0.8"/>
  </g>
  
  <g transform="rotate(5 65 45)">
    <rect x="50" y="30" width="30" height="30" fill="#E6F3FF" rx="3" ry="3" 
          stroke="#B8D4FF" stroke-width="0.5"/>
    <line x1="53" y1="40" x2="77" y2="40" stroke="#9BB5FF" stroke-width="0.8"/>
    <line x1="53" y1="45" x2="73" y2="45" stroke="#9BB5FF" stroke-width="0.8"/>
    <line x1="53" y1="50" x2="76" y2="50" stroke="#9BB5FF" stroke-width="0.8"/>
    <line x1="53" y1="55" x2="68" y2="55" stroke="#9BB5FF" stroke-width="0.8"/>
  </g>
  
  <g transform="rotate(-3 45 70)">
    <rect x="30" y="55" width="30" height="30" fill="#FFE6E6" rx="3" ry="3" 
          stroke="#FFB8B8" stroke-width="0.5"/>
    <line x1="33" y1="65" x2="57" y2="65" stroke="#FF9999" stroke-width="0.8"/>
    <line x1="33" y1="70" x2="53" y2="70" stroke="#FF9999" stroke-width="0.8"/>
    <line x1="33" y1="75" x2="56" y2="75" stroke="#FF9999" stroke-width="0.8"/>
    <line x1="33" y1="80" x2="48" y2="80" stroke="#FF9999" stroke-width="0.8"/>
  </g>
  
  <!-- Push pins -->
  <circle cx="30" cy="35" r="2" fill="#C0392B"/>
  <circle cx="30" cy="35" r="1" fill="#E74C3C"/>
  
  <circle cx="65" cy="40" r="2" fill="#2980B9"/>
  <circle cx="65" cy="40" r="1" fill="#3498DB"/>
  
  <circle cx="45" cy="65" r="2" fill="#27AE60"/>
  <circle cx="45" cy="65" r="1" fill="#2ECC71"/>
</svg>